<svg width="21" height="21" viewBox="0 0 21 21" fill="none" xmlns="http://www.w3.org/2000/svg">
<path d="M7.875 17.0625C7.875 18.5128 6.405 19.6875 4.59375 19.6875C2.7825 19.6875 1.3125 18.5128 1.3125 17.0625C1.3125 15.6135 2.7825 14.4375 4.59375 14.4375C6.405 14.4375 7.875 15.6135 7.875 17.0625ZM19.6875 14.4375C19.6875 15.8878 18.2175 17.0625 16.4062 17.0625C14.595 17.0625 13.125 15.8878 13.125 14.4375C13.125 12.9872 14.595 11.8125 16.4062 11.8125C18.2175 11.8125 19.6875 12.9872 19.6875 14.4375Z" fill="black"/>
<path fill-rule="evenodd" clip-rule="evenodd" d="M18.375 14.4375V2.625H19.6875V14.4375H18.375ZM7.875 3.9375V17.0625H6.5625V3.9375H7.875Z" fill="black"/>
<path d="M6.5625 3.81283C6.5625 3.48746 6.68335 3.17368 6.90162 2.93237C7.11989 2.69106 7.42 2.53943 7.74375 2.5069L18.2437 1.4569C18.4263 1.43855 18.6106 1.45867 18.7848 1.51595C18.9591 1.57323 19.1194 1.6664 19.2555 1.78945C19.3915 1.9125 19.5002 2.06269 19.5746 2.23035C19.6491 2.39801 19.6875 2.5794 19.6875 2.76283V3.93752L6.5625 5.25002V3.81283Z" fill="black"/>
</svg>
