<svg width="18" height="20" viewBox="0 0 18 20" fill="none" xmlns="http://www.w3.org/2000/svg">
<path d="M11.9844 10C11.9844 10.1182 11.9611 10.2352 11.9159 10.3444C11.8707 10.4536 11.8044 10.5528 11.7208 10.6364C11.6372 10.72 11.538 10.7863 11.4288 10.8315C11.3196 10.8767 11.2026 10.9 11.0844 10.9C10.9662 10.9 10.8492 10.8767 10.74 10.8315C10.6308 10.7863 10.5316 10.72 10.448 10.6364C10.3644 10.5528 10.2981 10.4536 10.2529 10.3444C10.2077 10.2352 10.1844 10.1182 10.1844 10C10.1844 9.76133 10.2792 9.53241 10.448 9.36363C10.6168 9.19484 10.8457 9.10002 11.0844 9.10002C11.3231 9.10002 11.552 9.19484 11.7208 9.36363C11.8896 9.53241 11.9844 9.76133 11.9844 10ZM8.52601 0.416822C8.4386 0.398047 8.3481 0.399043 8.26112 0.419738C8.17415 0.440432 8.0929 0.480301 8.02331 0.536431C7.95372 0.592561 7.89756 0.663532 7.85892 0.744156C7.82029 0.82478 7.80016 0.913019 7.80001 1.00242V19.0024C7.79998 19.0919 7.81998 19.1803 7.85853 19.2611C7.89709 19.3418 7.95323 19.413 8.02284 19.4692C8.09245 19.5255 8.17377 19.5655 8.26083 19.5862C8.34789 19.607 8.4385 19.608 8.52601 19.5892L16.926 17.788C17.0602 17.7589 17.1803 17.6847 17.2664 17.5776C17.3524 17.4706 17.3992 17.3373 17.3988 17.2V2.80002C17.3986 2.66295 17.3514 2.53009 17.2652 2.42355C17.1789 2.31701 17.0588 2.24321 16.9248 2.21442L8.52481 0.415622L8.52601 0.416822ZM9.00001 18.2596V1.74402L16.2 3.28602V16.7164L9.00001 18.2596ZM6.60241 18.3976V17.1976H1.80001V2.80362H6.60241V1.60362H1.20001C1.04088 1.60362 0.888264 1.66684 0.775742 1.77936C0.66322 1.89188 0.600006 2.04449 0.600006 2.20362V17.7976C0.600006 17.9568 0.66322 18.1094 0.775742 18.2219C0.888264 18.3344 1.04088 18.3976 1.20001 18.3976H6.60241Z" fill="#12B03E"/>
</svg>
